<?xml version="1.0" standalone="no"?>
<!DOCTYPE svg PUBLIC "-//W3C//DTD SVG 20010904//EN"
 "http://www.w3.org/TR/2001/REC-SVG-20010904/DTD/svg10.dtd">
<svg version="1.0" xmlns="http://www.w3.org/2000/svg"
 width="196.000000pt" height="196.000000pt" viewBox="0 0 196.000000 196.000000"
 preserveAspectRatio="xMidYMid meet">
<metadata>
Created by potrace 1.14, written by Peter Selinger 2001-2017
</metadata>
<g transform="translate(0.000000,196.000000) scale(0.100000,-0.100000)"
fill="#000000" stroke="none">
<path d="M835 1889 c-158 -33 -259 -73 -365 -144 -39 -26 -100 -75 -134 -109
-61 -61 -156 -184 -156 -204 0 -20 -32 -35 -88 -39 -91 -7 -88 5 -67 -238 1
-17 6 -71 10 -120 10 -118 9 -115 23 -148 7 -16 12 -38 12 -50 0 -38 40 -168
74 -243 116 -249 333 -430 606 -504 117 -32 304 -36 420 -9 244 57 437 187
569 384 41 61 99 171 105 200 2 6 10 35 20 66 23 76 27 106 31 236 2 61 8 138
14 170 10 57 16 90 26 156 3 17 8 44 11 58 7 34 -7 43 -91 58 l-70 13 -45 69
c-115 179 -320 327 -525 378 -27 7 -59 15 -70 18 -36 9 -269 11 -310 2z"/>
</g>
</svg>
